<svg width="79" height="88" viewBox="0 0 79 88" fill="none" xmlns="http://www.w3.org/2000/svg">
<path d="M34.7844 87.4965C56.6921 52.3911 41.2434 22.776 0 20.6053C0.0892789 21.1557 0.219763 21.2761 0.374285 21.314C34.1629 26.6598 34.441 60.0727 34.7844 87.4999V87.4965Z" fill="#FF6600"/>
<path d="M58.332 74.8584C60.4507 60.3863 54.8708 31.669 79.0001 38.1534C71.9471 50.6785 64.9696 63.0729 58.332 74.8584Z" fill="#FF6600"/>
<path d="M51.8407 37.0765C62.0606 37.0765 70.3455 28.7767 70.3455 18.5383C70.3455 8.29986 62.0606 0 51.8407 0C41.6208 0 33.3359 8.29986 33.3359 18.5383C33.3359 28.7767 41.6208 37.0765 51.8407 37.0765Z" fill="#FF6600"/>
</svg>
